<svg width="91" height="91" viewBox="0 0 91 91" fill="none" xmlns="http://www.w3.org/2000/svg">
<circle cx="45.5" cy="45.5" r="44" stroke="url(#paint0_linear)" stroke-width="3"/>
<path d="M46.4908 52.324C45.0508 52.324 44.3308 51.604 44.3308 50.164C44.3308 49.396 44.4988 48.58 44.8348 47.716C45.1708 46.852 45.4108 46.228 45.5548 45.844C45.8188 45.196 46.3348 44.116 47.1028 42.604C48.3028 40.06 49.2508 38.212 49.9468 37.06L39.5788 48.004C39.5068 48.46 39.1948 48.796 38.6428 49.012C38.4028 49.108 37.9828 49.516 37.3828 50.236C37.3588 50.26 37.3108 50.272 37.2388 50.272C37.1668 50.272 37.0948 50.248 37.0228 50.2C36.9748 50.152 36.9628 50.116 36.9868 50.092C37.6108 49.3 37.9348 48.208 37.9588 46.816L38.1748 36.34C38.1748 35.284 38.4628 34.408 39.0388 33.712C38.0788 34.432 37.3588 35.284 36.8788 36.268C36.6868 36.652 36.1708 37.912 35.3308 40.048C33.4108 44.8 31.5628 48.124 29.7868 50.02C29.1868 50.668 28.4188 51.22 27.4828 51.676C26.5468 52.132 25.6828 52.36 24.8908 52.36C24.0988 52.36 23.3788 52.144 22.7308 51.712C21.5308 50.896 20.9308 49.588 20.9308 47.788C20.9308 47.476 20.9788 47.308 21.0748 47.284C21.2428 47.26 21.3268 47.356 21.3268 47.572C21.3268 48.676 21.5908 49.528 22.1188 50.128C22.6708 50.704 23.3908 50.992 24.2788 50.992C25.8148 50.992 27.3508 50.14 28.8868 48.436C30.1828 47.044 31.3708 45.4 32.4508 43.504C32.7628 42.952 32.9908 42.556 33.1348 42.316C33.2788 42.052 33.5068 41.596 33.8188 40.948C34.1308 40.3 34.3348 39.88 34.4308 39.688C35.1748 38.08 35.6068 37.144 35.7268 36.88C36.6148 34.96 37.8628 33.76 39.4708 33.28L39.5068 33.244H37.5268C33.7108 33.244 31.4308 33.796 30.6868 34.9C30.4708 35.236 30.3628 35.56 30.3628 35.872C30.3628 36.928 30.7468 37.636 31.5148 37.996C31.6828 38.068 31.6708 38.152 31.4788 38.248C31.3108 38.344 31.1188 38.344 30.9028 38.248C30.7108 38.128 30.3868 37.816 29.9308 37.312C29.2828 36.544 28.9588 35.872 28.9588 35.296C28.9588 34.72 29.1388 34.216 29.4988 33.784C29.8828 33.352 30.6508 33.04 31.8028 32.848C33.4588 32.536 35.3428 32.38 37.4548 32.38C37.5268 32.38 37.5748 32.38 37.5988 32.38H41.4868C41.6788 32.356 41.6548 32.44 41.4148 32.632C41.1988 32.824 41.0668 32.92 41.0188 32.92C39.8668 33.16 39.2908 34.192 39.2908 36.016C39.2908 37.84 39.3868 41.464 39.5788 46.888V47.104L52.0708 33.928C53.0308 32.92 53.8468 32.188 54.5188 31.732C55.2148 31.252 55.8988 31.012 56.5708 31.012C56.8108 31.012 56.9308 31.036 56.9308 31.084C56.9308 31.108 56.8828 31.18 56.7868 31.3C56.6668 31.42 56.5468 31.48 56.4268 31.48C55.4188 31.48 54.3988 32.32 53.3668 34C51.9508 36.328 50.4028 39.352 48.7228 43.072C47.0428 46.792 46.2028 49.3 46.2028 50.596C46.2028 51.268 46.4308 51.604 46.8868 51.604C47.0548 51.604 47.3788 51.508 47.8588 51.316C48.3628 51.1 48.8428 50.776 49.2988 50.344C49.7788 49.912 50.1748 49.516 50.4868 49.156C50.7988 48.796 51.0508 48.496 51.2428 48.256C51.4348 48.016 51.6148 47.776 51.7828 47.536C51.9748 47.296 52.0828 47.164 52.1068 47.14C52.2508 46.924 52.3468 46.912 52.3948 47.104C52.4428 47.272 52.4188 47.416 52.3228 47.536C52.2508 47.632 52.1068 47.824 51.8908 48.112C51.6748 48.4 51.4708 48.652 51.2788 48.868C51.1108 49.084 50.8708 49.372 50.5588 49.732C50.2708 50.068 49.9948 50.368 49.7308 50.632C48.5308 51.76 47.4508 52.324 46.4908 52.324ZM50.8857 52.252C50.8617 52.276 50.8257 52.288 50.7777 52.288C50.7297 52.288 50.7057 52.156 50.7057 51.892C50.7057 51.628 50.8257 51.436 51.0657 51.316L51.3177 51.244C52.2537 51.196 53.1417 50.776 53.9817 49.984C54.8217 49.192 55.4217 48.364 55.7817 47.5L59.0937 39.22C59.8377 37.324 60.6897 35.776 61.6497 34.576C62.8017 33.088 64.3977 32.344 66.4377 32.344C67.5177 32.344 68.4057 32.536 69.1017 32.92C69.7977 33.28 70.1457 33.76 70.1457 34.36C70.1457 34.504 70.1217 34.684 70.0737 34.9C70.0257 35.092 69.8097 35.464 69.4257 36.016C69.0417 36.568 68.7897 37 68.6697 37.312C68.5737 37.624 68.4417 37.744 68.2737 37.672C68.1297 37.6 68.1057 37.492 68.2017 37.348C68.6337 36.724 68.8497 36.064 68.8497 35.368C68.8497 34.672 68.6937 34.06 68.3817 33.532C68.0937 33.004 67.6017 32.74 66.9057 32.74C65.3697 32.74 64.1697 33.544 63.3057 35.152L56.6457 47.428C55.6137 49.3 54.6177 50.428 53.6577 50.812C56.8737 50.812 59.3817 50.812 61.1817 50.812C63.0057 50.812 64.0377 50.812 64.2777 50.812C64.5177 50.788 64.7937 50.764 65.1057 50.74C65.4417 50.716 65.7177 50.692 65.9337 50.668C66.1497 50.644 66.3657 50.608 66.5817 50.56C67.3257 50.392 67.6977 49.912 67.6977 49.12C67.6977 48.52 67.3737 48.064 66.7257 47.752C66.5577 47.68 66.5337 47.596 66.6537 47.5C66.8937 47.332 67.3257 47.632 67.9497 48.4C68.5737 49.144 68.9337 49.66 69.0297 49.948C69.1497 50.236 69.2097 50.524 69.2097 50.812C69.2097 51.1 69.0297 51.4 68.6697 51.712C68.3097 52 67.4817 52.144 66.1857 52.144C64.8897 52.144 62.6097 52.024 59.3457 51.784C55.6257 51.544 53.5737 51.424 53.1897 51.424C52.2537 51.424 51.4857 51.7 50.8857 52.252Z" fill="#FFFCFC"/>
<defs>
<linearGradient id="paint0_linear" x1="45.5" y1="0" x2="45.5" y2="91" gradientUnits="userSpaceOnUse">
<stop stop-color="#8116EC"/>
<stop offset="1" stop-color="#213DCF"/>
</linearGradient>
</defs>
</svg>
